<?xml version="1.0" encoding="utf-8"?>
<!-- Generator: Adobe Illustrator 26.5.2, SVG Export Plug-In . SVG Version: 6.00 Build 0)  -->
<svg version="1.1" id="Layer_2" xmlns="http://www.w3.org/2000/svg" xmlns:xlink="http://www.w3.org/1999/xlink" x="0px" y="0px"
	 viewBox="0 0 2000 2000" style="enable-background:new 0 0 2000 2000;" xml:space="preserve">
<g>
	<path fill="white" d="M1779.5,641.9c-4.5-19-14-38.4-26.2-53.8c-44.7-56.5-103.1-95.5-171.5-116.4c-196.7-60.2-391.1-50.5-581.6,26.4
		c-53,21.4-103.5,48.7-158.4,74.8c11.2-25.7,22.6-49.1,31.4-73.4c3.3-9.2,3-20-1.6-23.7c-5.6-4.6-16.8-3.3-25.4,0.7
		c-39.3,18.2-49.4,55.7-55.3,92.7c-5.7,36-24.7,58.4-51.7,81.3c-36,30.6-70.3,65.3-97.4,103.9c-67.1,95.8-70.1,197.7-19,302.8
		c8,16.4,13.5,41.5,6.7,56.4c-59.3,131.2-121.6,261.1-183.4,391.2c-13.4,28.2-37.3,42-66.1,54.1c-34.6,14.6-67.5,35.7-97,59.2
		c-18.7,14.9-21.1,43.6-3.1,60.1c11,10.1,38.5,14.2,51.6,7.4c25.1-13,45.6-35.1,67.2-54.4c20.2-18,36.1-45.7,59.4-54.4
		c80.2-29.9,165.1-25.1,250.9-24.7c-1.7,48.8,10.2,90,45.9,120.6c56.5,48.4,122.4,67.1,195.7,54.4c49.1-8.5,82.9-47.7,87.2-96.9
		c1.1-12.7,0.2-25.6,0.2-40.3c6.8,0.4,12.9-0.6,18.2,1.2c52.9,17.5,105.4,35.8,158.4,53.1c23.9,7.8,48.4,13.8,72.7,20.6
		c2.1-4.4,4.3-8.7,6.4-13.1c-14.4-10.9-27.3-26.4-43.6-31.9c-66-22.5-133.3-41.4-199.7-63c-12.2-4-25.3-12.1-32.9-22.1
		c-45.1-58.9-87.9-119.5-133.1-178.3c-61.3-79.7-124-158.4-186.3-237.4c-16.1-20.4-16.2-40.6-8-65.3
		c41.7-126.2,80.9-253.1,122.3-379.4c5-15.2,14.5-33.4,27.4-40.8c57-32.9,114.2-66.5,174.5-92.1c129.2-54.8,263.1-74,402.2-40.6
		c89.4,21.5,163.3,69.2,234,125.5c27,21.5,72.7,49.8,89.7,54.1C1765.3,687.1,1785.5,667.1,1779.5,641.9z M318.1,1661
		c-5.5,0.4-14.3-0.8-16-4.2c-2.7-5.2-2.5-13.7-0.1-19.2c11.7-25.9,52.9-45.5,83.7-40.9C380.2,1625.3,345.3,1658.9,318.1,1661z
		 M1002.2,1616.2c3.7,26.8-10.4,55.2-37.1,67.2c-41.9,18.8-85.2,17.2-127.4,1.4c-40.4-15.2-78.4-35.4-95.7-78.7
		c-17.1-42.9-10.8-53.3,34-52.9c5.3,0,16.4,0.4,24.2,1.3c60.1,4.6,95.7,8.2,152.7,21C977.3,1581,998.2,1587.3,1002.2,1616.2z
		 M754.9,1521.9c25.9-68,90.4-64.2,168.4,13C863.5,1530.3,809.5,1526.1,754.9,1521.9z M949.7,1498.1c-29.4-15.4-55.7-33.2-84.7-43.6
		c-53.2-19.1-101.6-1.2-131.9,46.4c-10,15.6-20,20.3-38.7,20.8c-61.8,1.6-123.5,6.6-185.2,10.3c-9.9,0.6-19.7,1.5-30.7,2.4
		c62.6-133.8,124.1-265.3,186.3-398.3C760,1257.1,854.5,1377.2,949.7,1498.1z M653.6,1036c-35.7-53-41.5-110.1-25.3-168
		c19.6-70,56.3-129.9,120.3-170.8C732.5,815.6,694.2,925.7,653.6,1036z"/>
</g>
</svg>
